<svg version="1.1" id="Layer_1" xmlns="http://www.w3.org/2000/svg" xmlns:xlink="http://www.w3.org/1999/xlink" x="0px" y="0px"
	 width="100%" viewBox="0 0 560 560" enable-background="new 0 0 560 560" xml:space="preserve">
<path fill="#010100" opacity="1.000000" stroke="none" 
	d="
M311.000000,561.000000 
	C207.356339,561.000000 104.212685,561.000000 1.034516,561.000000 
	C1.034516,374.397980 1.034516,187.795959 1.034516,1.096967 
	C187.560333,1.096967 374.120758,1.096967 560.840576,1.096967 
	C560.840576,187.666565 560.840576,374.333252 560.840576,561.000000 
	C477.795898,561.000000 394.647949,561.000000 311.000000,561.000000 
M162.116211,420.954468 
	C162.116211,420.954468 162.067657,420.802979 161.798233,420.408020 
	C161.561401,420.169800 161.275116,420.044739 160.342743,419.876923 
	C159.562927,419.220215 158.783127,418.563538 157.733444,417.496552 
	C157.501083,417.242523 157.213623,417.098236 156.270767,416.896667 
	C155.845474,416.452942 155.420166,416.009216 154.859329,415.249817 
	C154.711395,415.057709 154.517456,414.944305 154.094269,414.924561 
	C154.094269,414.924561 154.081345,414.741180 153.896255,414.361847 
	C153.715668,414.127930 153.480362,413.982697 153.071167,413.932434 
	C153.071167,413.932434 153.069427,413.813141 152.898117,413.409363 
	C152.722336,413.156433 152.484161,412.996307 152.080200,412.928680 
	C152.080200,412.928680 152.085709,412.825439 152.069122,412.086945 
	C150.994949,411.099030 149.920776,410.111115 148.962540,409.028870 
	C148.962540,409.028870 148.871262,409.147217 148.910828,408.409180 
	C147.574615,406.974396 146.238419,405.539581 144.985687,404.029419 
	C144.985687,404.029419 144.889343,404.086487 144.930954,403.347229 
	C144.518997,402.286591 144.272430,401.119690 143.669662,400.181702 
	C137.258926,390.205902 133.831512,379.219238 134.122406,367.457794 
	C134.315918,359.633606 136.000519,351.846283 136.987228,344.013763 
	C136.987228,344.013763 137.028046,344.004425 137.687790,343.771637 
	C138.114578,342.500885 138.541351,341.230164 139.088531,339.273071 
	C142.820236,334.406067 146.095322,329.090912 150.359497,324.746582 
	C173.854080,300.810242 174.591278,263.529633 151.848938,238.889053 
	C144.924347,231.386490 138.726089,223.347443 135.336105,213.543732 
	C124.323021,181.694229 140.134705,152.217392 167.646378,137.335464 
	C190.416351,125.018478 216.685333,130.095963 236.051605,148.894806 
	C240.779358,153.484039 246.025421,157.898743 251.782089,161.006485 
	C276.952850,174.594955 305.616760,169.781906 325.988464,149.111465 
	C350.204651,124.540184 386.560364,124.852486 410.702759,149.285889 
	C416.082916,154.730881 422.753052,159.375107 429.623444,162.790375 
	C457.030884,176.414688 490.796844,165.955856 507.772369,139.181931 
	C523.704712,114.053307 518.025085,78.802849 495.001190,59.917500 
	C470.343811,39.692341 436.373047,40.242950 412.927032,62.372555 
	C381.450104,92.082130 344.015045,84.222748 322.453217,61.849216 
	C301.250397,39.848206 264.650177,40.029591 241.303986,59.919727 
	C237.122345,63.482334 233.055710,67.236420 228.564255,70.369202 
	C208.067856,84.665405 186.484299,86.140305 164.562134,74.225311 
	C158.254150,70.796837 152.957916,65.403366 147.454575,60.615677 
	C122.520050,38.923664 84.145325,40.692070 62.098511,64.658577 
	C38.979019,89.791161 39.757656,127.778763 63.871681,151.166138 
	C89.477417,176.000275 89.539268,211.843689 64.019234,236.677200 
	C38.524017,261.486572 39.080952,302.020111 65.031540,326.428802 
	C68.858200,330.028107 72.286072,334.323914 74.931137,338.861359 
	C88.881248,362.792114 84.621010,390.606659 64.291924,410.541199 
	C44.935600,429.521820 39.621174,458.762451 51.341831,481.793793 
	C71.390076,521.189026 121.362534,528.710876 152.092926,496.917572 
	C159.442642,489.313629 168.040115,483.738434 178.271210,481.117188 
	C201.784607,475.093140 221.325745,481.921692 238.156174,499.134064 
	C260.796356,522.287903 299.596558,522.153015 323.207458,500.082733 
	C351.753754,473.399017 348.828522,423.126495 313.234314,403.152710 
	C312.818451,402.795105 312.402588,402.437531 311.946991,401.997223 
	C311.946991,401.997223 311.864563,402.037659 311.435364,401.519867 
	C299.541656,394.510406 286.526978,392.212097 273.122070,394.126007 
	C266.146576,395.121918 259.500610,398.425446 252.786972,400.711578 
	C252.786972,400.711578 252.794952,400.627014 252.080139,400.730072 
	C249.034027,402.816254 245.987930,404.902466 243.003143,407.007568 
	C243.003143,407.007568 243.011322,406.943939 242.423538,407.055420 
	C242.168350,407.349457 241.913177,407.643463 241.075150,408.209900 
	C238.178070,410.685394 235.338104,413.231628 232.374741,415.625061 
	C211.309937,432.638672 183.528000,434.892761 162.786194,421.059631 
	C162.638214,420.923889 162.465042,420.871643 162.116211,420.954468 
M300.297974,276.881348 
	C298.062500,274.410675 295.826996,271.940002 293.112701,268.957336 
	C283.349121,263.123352 272.125366,264.506042 265.047943,272.414734 
	C257.726868,280.595825 257.260406,291.363953 263.969757,300.643524 
	C264.231689,300.847656 264.493622,301.051758 265.026245,301.867737 
	C274.857697,311.600830 288.781799,311.404877 297.888641,301.052216 
	C298.319244,300.090210 298.749847,299.128204 299.830597,297.887939 
	C303.404663,292.075562 304.001038,285.996796 301.367554,279.057465 
	C301.085114,278.549347 300.802704,278.041229 300.297974,276.881348 
M459.508972,307.098450 
	C460.780426,306.715820 462.083862,306.415771 463.318115,305.937195 
	C471.690643,302.690857 477.226379,293.994934 476.913757,284.649567 
	C476.619385,275.848053 470.194672,267.453278 461.834381,264.946228 
	C453.109589,262.329865 443.939911,264.912079 438.429626,271.851318 
	C432.614380,279.174561 431.684906,287.259064 435.823822,295.662933 
	C439.970917,304.083344 448.378967,308.187592 459.508972,307.098450 
M455.451263,478.226105 
	C465.698547,477.525848 473.305969,471.872742 475.989929,462.963776 
	C478.619049,454.236755 475.536163,444.501434 468.503052,439.321045 
	C460.569031,433.477051 450.807556,433.190765 442.918610,438.570648 
	C435.226074,443.816620 431.685577,453.324310 434.123688,462.188782 
	C436.697205,471.545685 444.131714,477.380371 455.451263,478.226105 
z"/>
<path fill="#FAC019" opacity="1.000000" stroke="none" 
	d="
M158.003311,417.906830 
	C158.783127,418.563538 159.562927,419.220215 160.738098,420.191406 
	C161.444855,420.604950 161.756256,420.703979 162.067657,420.802979 
	C162.067657,420.802979 162.116211,420.954468 162.231430,421.084473 
	C162.346649,421.214447 162.620941,421.382111 162.620941,421.382111 
	C162.620941,421.382111 162.931198,421.297974 162.931198,421.297974 
	C183.528000,434.892761 211.309937,432.638672 232.374741,415.625061 
	C235.338104,413.231628 238.178070,410.685394 241.634247,407.969360 
	C242.465988,407.467163 242.738647,407.205566 243.011322,406.943939 
	C243.011322,406.943939 243.003143,407.007568 243.329483,406.960052 
	C246.702194,404.817352 249.748566,402.722168 252.794952,400.627014 
	C252.794952,400.627014 252.786972,400.711578 253.141998,400.764557 
	C255.074951,400.365021 256.700500,400.034546 258.223145,399.440430 
	C269.149109,395.177124 280.411285,393.444550 291.928589,396.006653 
	C298.686707,397.510040 305.226532,399.994507 311.864563,402.037659 
	C311.864563,402.037659 311.946991,401.997223 312.040527,402.222534 
	C312.460907,402.836517 312.787720,403.225189 313.114502,403.613861 
	C348.828522,423.126495 351.753754,473.399017 323.207458,500.082733 
	C299.596558,522.153015 260.796356,522.287903 238.156174,499.134064 
	C221.325745,481.921692 201.784607,475.093140 178.271210,481.117188 
	C168.040115,483.738434 159.442642,489.313629 152.092926,496.917572 
	C121.362534,528.710876 71.390076,521.189026 51.341831,481.793793 
	C39.621174,458.762451 44.935600,429.521820 64.291924,410.541199 
	C84.621010,390.606659 88.881248,362.792114 74.931137,338.861359 
	C72.286072,334.323914 68.858200,330.028107 65.031540,326.428802 
	C39.080952,302.020111 38.524017,261.486572 64.019234,236.677200 
	C89.539268,211.843689 89.477417,176.000275 63.871681,151.166138 
	C39.757656,127.778763 38.979019,89.791161 62.098511,64.658577 
	C84.145325,40.692070 122.520050,38.923664 147.454575,60.615677 
	C152.957916,65.403366 158.254150,70.796837 164.562134,74.225311 
	C186.484299,86.140305 208.067856,84.665405 228.564255,70.369202 
	C233.055710,67.236420 237.122345,63.482334 241.303986,59.919727 
	C264.650177,40.029591 301.250397,39.848206 322.453217,61.849216 
	C344.015045,84.222748 381.450104,92.082130 412.927032,62.372555 
	C436.373047,40.242950 470.343811,39.692341 495.001190,59.917500 
	C518.025085,78.802849 523.704712,114.053307 507.772369,139.181931 
	C490.796844,165.955856 457.030884,176.414688 429.623444,162.790375 
	C422.753052,159.375107 416.082916,154.730881 410.702759,149.285889 
	C386.560364,124.852486 350.204651,124.540184 325.988464,149.111465 
	C305.616760,169.781906 276.952850,174.594955 251.782089,161.006485 
	C246.025421,157.898743 240.779358,153.484039 236.051605,148.894806 
	C216.685333,130.095963 190.416351,125.018478 167.646378,137.335464 
	C140.134705,152.217392 124.323021,181.694229 135.336105,213.543732 
	C138.726089,223.347443 144.924347,231.386490 151.848938,238.889053 
	C174.591278,263.529633 173.854080,300.810242 150.359497,324.746582 
	C146.095322,329.090912 142.820236,334.406067 138.761658,339.813660 
	C137.965881,341.570984 137.496964,342.787720 137.028046,344.004425 
	C137.028046,344.004425 136.987228,344.013763 136.759293,344.280609 
	C128.269043,365.944733 130.311127,385.895508 144.889343,404.086487 
	C144.889343,404.086487 144.985687,404.029419 145.009735,404.387817 
	C146.312943,406.213226 147.592102,407.680237 148.871262,409.147217 
	C148.871262,409.147217 148.962540,409.028870 148.991165,409.379883 
	C150.041763,410.762421 151.063736,411.793915 152.085724,412.825439 
	C152.085709,412.825439 152.080200,412.928680 152.179688,413.158203 
	C152.457626,413.687317 152.721054,413.829132 153.069427,413.813141 
	C153.069427,413.813141 153.071167,413.932434 153.185379,414.149384 
	C153.483734,414.650696 153.744308,414.775635 154.081345,414.741180 
	C154.081345,414.741180 154.094269,414.924561 154.216965,415.103699 
	C154.492233,415.529633 154.710632,415.623871 154.994858,415.565491 
	C155.420166,416.009216 155.845474,416.452942 156.673706,417.217529 
	C157.385544,417.661224 157.694427,417.784027 158.003311,417.906830 
z"/>
<path fill="#F6BF1C" opacity="1.000000" stroke="none" 
	d="
M459.110321,307.151001 
	C448.378967,308.187592 439.970917,304.083344 435.823822,295.662933 
	C431.684906,287.259064 432.614380,279.174561 438.429626,271.851318 
	C443.939911,264.912079 453.109589,262.329865 461.834381,264.946228 
	C470.194672,267.453278 476.619385,275.848053 476.913757,284.649567 
	C477.226379,293.994934 471.690643,302.690857 463.318115,305.937195 
	C462.083862,306.415771 460.780426,306.715820 459.110321,307.151001 
z"/>
<path fill="#F7BE1C" opacity="1.000000" stroke="none" 
	d="
M455.004303,478.225708 
	C444.131714,477.380371 436.697205,471.545685 434.123688,462.188782 
	C431.685577,453.324310 435.226074,443.816620 442.918610,438.570648 
	C450.807556,433.190765 460.569031,433.477051 468.503052,439.321045 
	C475.536163,444.501434 478.619049,454.236755 475.989929,462.963776 
	C473.305969,471.872742 465.698547,477.525848 455.004303,478.225708 
z"/>
<path fill="#211002" opacity="1.000000" stroke="none" 
	d="
M144.910156,403.716858 
	C130.311127,385.895508 128.269043,365.944733 136.774536,344.294983 
	C136.000519,351.846283 134.315918,359.633606 134.122406,367.457794 
	C133.831512,379.219238 137.258926,390.205902 143.669662,400.181702 
	C144.272430,401.119690 144.518997,402.286591 144.910156,403.716858 
z"/>
<path fill="#DAAE30" opacity="1.000000" stroke="none" 
	d="
M263.846649,300.146118 
	C257.260406,291.363953 257.726868,280.595825 265.047943,272.414734 
	C272.125366,264.506042 283.349121,263.123352 293.179382,269.373352 
	C293.246063,269.789398 292.911682,270.120972 292.555908,270.010803 
	C291.134216,269.435486 290.089569,268.912048 288.999054,268.514252 
	C277.740204,264.407318 266.908783,268.702515 262.469177,279.198792 
	C259.457794,286.318359 260.789062,293.197357 264.125366,299.912048 
	C264.030945,299.988251 263.846649,300.146118 263.846649,300.146118 
z"/>
<path fill="#E3BE3C" opacity="1.000000" stroke="none" 
	d="
M311.649963,401.778748 
	C305.226532,399.994507 298.686707,397.510040 291.928589,396.006653 
	C280.411285,393.444550 269.149109,395.177124 258.223145,399.440430 
	C256.700500,400.034546 255.074951,400.365021 253.101410,400.752075 
	C259.500610,398.425446 266.146576,395.121918 273.122070,394.126007 
	C286.526978,392.212097 299.541656,394.510406 311.649963,401.778748 
z"/>
<path fill="#DAAE30" opacity="1.000000" stroke="none" 
	d="
M297.353180,301.412781 
	C288.781799,311.404877 274.857697,311.600830 264.989929,301.452454 
	C264.953613,301.037170 265.146332,300.813690 265.463867,300.944977 
	C271.021179,305.142212 276.762451,308.545807 283.546814,306.853058 
	C288.210815,305.689392 292.484375,302.960632 297.037872,301.051575 
	C297.143311,301.171692 297.353180,301.412781 297.353180,301.412781 
z"/>
<path fill="#DAAE30" opacity="1.000000" stroke="none" 
	d="
M301.463257,279.637665 
	C304.001038,285.996796 303.404663,292.075562 299.416138,297.952087 
	C299.001678,298.016235 298.821533,297.867950 298.958710,297.511139 
	C299.672943,291.472137 300.250000,285.789978 300.986755,279.991089 
	C301.146423,279.874420 301.463257,279.637665 301.463257,279.637665 
z"/>
<path fill="#DAAE30" opacity="1.000000" stroke="none" 
	d="
M293.418793,269.629364 
	C295.826996,271.940002 298.062500,274.410675 300.246521,277.350464 
	C300.195068,277.819550 299.877625,278.114624 299.586548,277.962402 
	C297.167542,275.247131 295.039612,272.684052 292.911682,270.120972 
	C292.911682,270.120972 293.246063,269.789398 293.418793,269.629364 
z"/>
<path fill="#E3BE3C" opacity="1.000000" stroke="none" 
	d="
M252.437531,400.678528 
	C249.748566,402.722168 246.702194,404.817352 243.298828,406.950623 
	C245.987930,404.902466 249.034027,402.816254 252.437531,400.678528 
z"/>
<path fill="#211002" opacity="1.000000" stroke="none" 
	d="
M148.891052,408.778198 
	C147.592102,407.680237 146.312943,406.213226 144.967987,404.425507 
	C146.238419,405.539581 147.574615,406.974396 148.891052,408.778198 
z"/>
<path fill="#211002" opacity="1.000000" stroke="none" 
	d="
M152.077423,412.456177 
	C151.063736,411.793915 150.041763,410.762421 148.933197,409.427063 
	C149.920776,410.111115 150.994949,411.099030 152.077423,412.456177 
z"/>
<path fill="#211002" opacity="1.000000" stroke="none" 
	d="
M137.357910,343.888031 
	C137.496964,342.787720 137.965881,341.570984 138.701447,340.156860 
	C138.541351,341.230164 138.114578,342.500885 137.357910,343.888031 
z"/>
<path fill="#DAAE30" opacity="1.000000" stroke="none" 
	d="
M299.091064,298.091217 
	C298.749847,299.128204 298.319244,300.090210 297.620911,301.232483 
	C297.353180,301.412781 297.143311,301.171692 297.195801,300.796661 
	C297.772705,299.570404 298.297119,298.719177 298.821533,297.867950 
	C298.821533,297.867950 299.001678,298.016235 299.091064,298.091217 
z"/>
<path fill="#E3BE3C" opacity="1.000000" stroke="none" 
	d="
M313.174408,403.383301 
	C312.787720,403.225189 312.460907,402.836517 312.060425,402.263916 
	C312.402588,402.437531 312.818451,402.795105 313.174408,403.383301 
z"/>
<path fill="#DAAE30" opacity="1.000000" stroke="none" 
	d="
M300.357666,277.676331 
	C300.802704,278.041229 301.085114,278.549347 301.415405,279.347565 
	C301.463257,279.637665 301.146423,279.874420 300.833252,279.759491 
	C300.305939,279.134583 300.091797,278.624603 299.877625,278.114624 
	C299.877625,278.114624 300.195068,277.819550 300.357666,277.676331 
z"/>
<path fill="#DAAE30" opacity="1.000000" stroke="none" 
	d="
M264.854584,301.146545 
	C264.493622,301.051758 264.231689,300.847656 263.908203,300.394836 
	C263.846649,300.146118 264.030945,299.988251 264.281433,300.073303 
	C264.740448,300.373352 264.945251,300.591766 265.146332,300.813690 
	C265.146332,300.813690 264.953613,301.037170 264.854584,301.146545 
z"/>
<path fill="#E3BE3C" opacity="1.000000" stroke="none" 
	d="
M242.717438,406.999695 
	C242.738647,407.205566 242.465988,407.467163 241.925659,407.833130 
	C241.913177,407.643463 242.168350,407.349457 242.717438,406.999695 
z"/>
<path fill="#211002" opacity="1.000000" stroke="none" 
	d="
M152.983765,413.611267 
	C152.721054,413.829132 152.457626,413.687317 152.231384,413.158386 
	C152.484161,412.996307 152.722336,413.156433 152.983765,413.611267 
z"/>
<path fill="#211002" opacity="1.000000" stroke="none" 
	d="
M153.988800,414.551514 
	C153.744308,414.775635 153.483734,414.650696 153.244965,414.146240 
	C153.480362,413.982697 153.715668,414.127930 153.988800,414.551514 
z"/>
<path fill="#211002" opacity="1.000000" stroke="none" 
	d="
M154.927094,415.407654 
	C154.710632,415.623871 154.492233,415.529633 154.308563,415.096252 
	C154.517456,414.944305 154.711395,415.057709 154.927094,415.407654 
z"/>
<path fill="#211002" opacity="1.000000" stroke="none" 
	d="
M157.868378,417.701691 
	C157.694427,417.784027 157.385544,417.661224 156.973862,417.301056 
	C157.213623,417.098236 157.501083,417.242523 157.868378,417.701691 
z"/>
<path fill="#211002" opacity="1.000000" stroke="none" 
	d="
M161.932953,420.605499 
	C161.756256,420.703979 161.444855,420.604950 161.036407,420.269409 
	C161.275116,420.044739 161.561401,420.169800 161.932953,420.605499 
z"/>
<path fill="#211002" opacity="1.000000" stroke="none" 
	d="
M162.858704,421.178802 
	C162.931198,421.297974 162.620941,421.382111 162.620941,421.382111 
	C162.620941,421.382111 162.346649,421.214447 162.306671,421.058655 
	C162.465042,420.871643 162.638214,420.923889 162.858704,421.178802 
z"/>
<path fill="#F6BF1C" opacity="1.000000" stroke="none" 
	d="
M265.463867,300.944977 
	C264.945251,300.591766 264.740448,300.373352 264.375885,299.997131 
	C260.789062,293.197357 259.457794,286.318359 262.469177,279.198792 
	C266.908783,268.702515 277.740204,264.407318 288.999054,268.514252 
	C290.089569,268.912048 291.134216,269.435486 292.555908,270.010803 
	C295.039612,272.684052 297.167542,275.247131 299.586548,277.962402 
	C300.091797,278.624603 300.305939,279.134583 300.673584,279.876160 
	C300.250000,285.789978 299.672943,291.472137 298.958710,297.511139 
	C298.297119,298.719177 297.772705,299.570404 297.090393,300.676514 
	C292.484375,302.960632 288.210815,305.689392 283.546814,306.853058 
	C276.762451,308.545807 271.021179,305.142212 265.463867,300.944977 
z"/>
</svg>