<svg version="1.1" id="Layer_1" xmlns="http://www.w3.org/2000/svg" xmlns:xlink="http://www.w3.org/1999/xlink" x="0px" y="0px"
	 width="100%" viewBox="0 0 900 900" enable-background="new 0 0 900 900" xml:space="preserve">
<path fill="#262626" opacity="1.000000" stroke="none" 
	d="
M566.000000,901.000000 
	C377.333344,901.000000 189.166672,901.000000 1.000000,901.000000 
	C1.000000,601.000000 1.000000,301.000000 1.000000,1.000000 
	C301.000000,1.000000 601.000000,1.000000 901.000000,1.000000 
	C901.000000,301.000000 901.000000,601.000000 901.000000,901.000000 
	C789.500000,901.000000 678.000000,901.000000 566.000000,901.000000 
M500.109070,665.671326 
	C505.924561,658.814270 509.800964,650.808960 511.656677,642.198792 
	C515.169067,625.901733 513.395874,610.155029 504.607788,595.534973 
	C495.417236,580.245361 481.813232,570.550171 464.763428,567.021057 
	C444.038666,562.731323 425.220581,567.845337 409.311920,582.533875 
	C398.388916,592.619019 386.093781,600.645142 370.875122,602.101685 
	C351.113434,603.992981 333.822327,598.115051 319.377625,584.167664 
	C305.830048,571.086609 299.847412,554.947266 300.541382,536.481934 
	C301.158295,520.066833 307.720337,505.985413 319.465363,494.314056 
	C327.568024,486.262268 332.855164,476.297729 335.237793,465.324554 
	C339.519623,445.604584 335.686859,427.495850 322.768768,411.404755 
	C316.564575,403.676636 310.841400,395.441254 305.863678,386.875824 
	C296.593567,370.924133 297.493439,353.971710 304.783752,337.861755 
	C312.260742,321.339264 324.662292,309.322571 341.993225,302.253876 
	C361.384583,294.344757 389.215912,298.609680 404.142822,314.251801 
	C413.458069,324.013397 424.440277,331.077545 437.377045,334.383057 
	C448.762543,337.292206 460.411957,337.498291 471.780975,333.261658 
	C480.848114,329.882812 488.358154,324.428040 495.152985,317.570618 
	C509.065948,303.529602 525.917603,297.530182 545.818054,298.985107 
	C562.060242,300.172516 575.115906,307.377960 586.138672,318.503204 
	C594.920349,327.366455 605.291260,333.274597 617.222961,335.197510 
	C641.502686,339.110443 661.801758,331.385040 677.017822,311.620209 
	C692.798157,291.122437 693.386658,261.049744 678.841675,239.596100 
	C669.975525,226.518646 657.508057,218.759872 642.777405,214.402603 
	C632.862610,211.469833 622.619019,211.254425 612.802490,214.841476 
	C600.844238,219.211197 590.073120,225.916122 580.417175,234.149200 
	C569.862549,243.148514 558.265686,249.371826 544.204712,250.229431 
	C530.480591,251.066528 517.383667,248.391022 506.582428,239.838882 
	C496.123596,231.557877 485.834076,223.147446 473.554382,217.828644 
	C467.885284,215.373154 461.702423,213.597153 455.583740,212.785461 
	C440.031738,210.722321 427.290497,218.109818 414.799408,226.052994 
	C403.375061,233.317856 394.129333,243.985565 380.441498,247.735657 
	C367.921875,251.165710 355.584137,251.480911 343.229187,246.968567 
	C333.009735,243.236160 325.049622,236.219742 316.718140,229.624191 
	C306.852692,221.814270 295.838074,215.506882 283.497162,213.264633 
	C265.385620,209.973892 249.434586,216.345276 235.392731,227.641632 
	C225.262756,235.790955 218.952301,246.381592 215.012405,258.837952 
	C211.868698,268.777100 211.269547,278.758270 214.226212,288.280029 
	C218.391525,301.694153 225.973511,313.609009 235.750504,323.761627 
	C243.875015,332.198303 249.134460,341.892334 251.163849,353.310333 
	C254.025620,369.411469 250.680984,384.358856 240.212234,396.835541 
	C230.224533,408.738892 220.436768,420.509033 215.335297,435.506042 
	C211.940933,445.484558 211.605789,455.708069 214.867661,465.384064 
	C219.690536,479.690491 228.365768,491.878693 238.384445,503.245331 
	C242.781021,508.233490 246.489059,514.333496 248.793289,520.563477 
	C255.015900,537.387573 252.662399,553.826172 243.151611,568.825928 
	C238.204239,576.628540 231.614944,583.370178 226.148743,590.869141 
	C220.144073,599.106689 215.084610,608.202881 213.539581,618.218018 
	C210.578293,637.413696 216.748749,654.294434 229.564606,668.723389 
	C237.366669,677.507446 247.091187,683.002686 258.304077,686.801514 
	C268.599762,690.289490 278.993256,690.963562 288.606934,687.525940 
	C298.437012,684.011047 307.468811,677.955322 316.385529,672.281677 
	C325.145294,666.708008 331.676270,658.086121 341.938202,654.342163 
	C357.249481,648.755920 372.405884,648.328430 386.940460,655.687683 
	C394.236053,659.381592 400.527130,665.091187 407.183044,670.010254 
	C422.039703,680.990112 437.260254,691.167725 456.985291,689.224670 
	C461.839050,688.746582 466.566132,686.887329 471.326111,685.571289 
	C482.968231,682.352844 492.087830,675.417053 500.109070,665.671326 
M612.468994,613.978027 
	C610.414124,617.705017 607.379639,621.211609 606.482727,625.199097 
	C603.445007,638.705078 616.681152,653.684875 635.177979,649.645813 
	C646.489624,647.175842 657.716797,630.506348 647.030579,616.361267 
	C639.381897,606.236816 621.900330,604.422241 612.468994,613.978027 
M449.906006,436.310638 
	C433.633270,438.059906 425.623627,452.452698 432.796906,467.469604 
	C438.277313,478.942474 454.352509,483.083313 465.065002,474.293945 
	C471.931702,468.659973 474.828705,457.528961 471.839050,449.774811 
	C469.153656,442.809723 461.270294,435.162415 449.906006,436.310638 
M631.427368,435.002563 
	C617.518982,432.130219 602.825500,447.429657 608.518921,462.798218 
	C612.623230,473.877258 621.821228,478.279175 630.756226,477.234741 
	C641.824585,475.940918 649.584351,466.773529 649.878845,456.367920 
	C650.166992,446.189056 643.685852,436.896240 631.427368,435.002563 
z"/>
<path fill="#F5BD1F" opacity="1.000000" stroke="none" 
	d="
M499.874512,665.937683 
	C492.087830,675.417053 482.968231,682.352844 471.326111,685.571289 
	C466.566132,686.887329 461.839050,688.746582 456.985291,689.224670 
	C437.260254,691.167725 422.039703,680.990112 407.183044,670.010254 
	C400.527130,665.091187 394.236053,659.381592 386.940460,655.687683 
	C372.405884,648.328430 357.249481,648.755920 341.938202,654.342163 
	C331.676270,658.086121 325.145294,666.708008 316.385529,672.281677 
	C307.468811,677.955322 298.437012,684.011047 288.606934,687.525940 
	C278.993256,690.963562 268.599762,690.289490 258.304077,686.801514 
	C247.091187,683.002686 237.366669,677.507446 229.564606,668.723389 
	C216.748749,654.294434 210.578293,637.413696 213.539581,618.218018 
	C215.084610,608.202881 220.144073,599.106689 226.148743,590.869141 
	C231.614944,583.370178 238.204239,576.628540 243.151611,568.825928 
	C252.662399,553.826172 255.015900,537.387573 248.793289,520.563477 
	C246.489059,514.333496 242.781021,508.233490 238.384445,503.245331 
	C228.365768,491.878693 219.690536,479.690491 214.867661,465.384064 
	C211.605789,455.708069 211.940933,445.484558 215.335297,435.506042 
	C220.436768,420.509033 230.224533,408.738892 240.212234,396.835541 
	C250.680984,384.358856 254.025620,369.411469 251.163849,353.310333 
	C249.134460,341.892334 243.875015,332.198303 235.750504,323.761627 
	C225.973511,313.609009 218.391525,301.694153 214.226212,288.280029 
	C211.269547,278.758270 211.868698,268.777100 215.012405,258.837952 
	C218.952301,246.381592 225.262756,235.790955 235.392731,227.641632 
	C249.434586,216.345276 265.385620,209.973892 283.497162,213.264633 
	C295.838074,215.506882 306.852692,221.814270 316.718140,229.624191 
	C325.049622,236.219742 333.009735,243.236160 343.229187,246.968567 
	C355.584137,251.480911 367.921875,251.165710 380.441498,247.735657 
	C394.129333,243.985565 403.375061,233.317856 414.799408,226.052994 
	C427.290497,218.109818 440.031738,210.722321 455.583740,212.785461 
	C461.702423,213.597153 467.885284,215.373154 473.554382,217.828644 
	C485.834076,223.147446 496.123596,231.557877 506.582428,239.838882 
	C517.383667,248.391022 530.480591,251.066528 544.204712,250.229431 
	C558.265686,249.371826 569.862549,243.148514 580.417175,234.149200 
	C590.073120,225.916122 600.844238,219.211197 612.802490,214.841476 
	C622.619019,211.254425 632.862610,211.469833 642.777405,214.402603 
	C657.508057,218.759872 669.975525,226.518646 678.841675,239.596100 
	C693.386658,261.049744 692.798157,291.122437 677.017822,311.620209 
	C661.801758,331.385040 641.502686,339.110443 617.222961,335.197510 
	C605.291260,333.274597 594.920349,327.366455 586.138672,318.503204 
	C575.115906,307.377960 562.060242,300.172516 545.818054,298.985107 
	C525.917603,297.530182 509.065948,303.529602 495.152985,317.570618 
	C488.358154,324.428040 480.848114,329.882812 471.780975,333.261658 
	C460.411957,337.498291 448.762543,337.292206 437.377045,334.383057 
	C424.440277,331.077545 413.458069,324.013397 404.142822,314.251801 
	C389.215912,298.609680 361.384583,294.344757 341.993225,302.253876 
	C324.662292,309.322571 312.260742,321.339264 304.783752,337.861755 
	C297.493439,353.971710 296.593567,370.924133 305.863678,386.875824 
	C310.841400,395.441254 316.564575,403.676636 322.768768,411.404755 
	C335.686859,427.495850 339.519623,445.604584 335.237793,465.324554 
	C332.855164,476.297729 327.568024,486.262268 319.465363,494.314056 
	C307.720337,505.985413 301.158295,520.066833 300.541382,536.481934 
	C299.847412,554.947266 305.830048,571.086609 319.377625,584.167664 
	C333.822327,598.115051 351.113434,603.992981 370.875122,602.101685 
	C386.093781,600.645142 398.388916,592.619019 409.311920,582.533875 
	C425.220581,567.845337 444.038666,562.731323 464.763428,567.021057 
	C481.813232,570.550171 495.417236,580.245361 504.607788,595.534973 
	C513.395874,610.155029 515.169067,625.901733 511.656677,642.198792 
	C509.800964,650.808960 505.924561,658.814270 499.874512,665.937683 
z"/>
<path fill="#EDB820" opacity="1.000000" stroke="none" 
	d="
M612.724731,613.740845 
	C621.900330,604.422241 639.381897,606.236816 647.030579,616.361267 
	C657.716797,630.506348 646.489624,647.175842 635.177979,649.645813 
	C616.681152,653.684875 603.445007,638.705078 606.482727,625.199097 
	C607.379639,621.211609 610.414124,617.705017 612.724731,613.740845 
z"/>
<path fill="#EDB820" opacity="1.000000" stroke="none" 
	d="
M450.312561,436.290192 
	C461.270294,435.162415 469.153656,442.809723 471.839050,449.774811 
	C474.828705,457.528961 471.931702,468.659973 465.065002,474.293945 
	C454.352509,483.083313 438.277313,478.942474 432.796906,467.469604 
	C425.623627,452.452698 433.633270,438.059906 450.312561,436.290192 
z"/>
<path fill="#EDB820" opacity="1.000000" stroke="none" 
	d="
M631.788269,435.110931 
	C643.685852,436.896240 650.166992,446.189056 649.878845,456.367920 
	C649.584351,466.773529 641.824585,475.940918 630.756226,477.234741 
	C621.821228,478.279175 612.623230,473.877258 608.518921,462.798218 
	C602.825500,447.429657 617.518982,432.130219 631.788269,435.110931 
z"/>
</svg>